<?xml version="1.0" standalone="no"?>
<!DOCTYPE svg PUBLIC "-//W3C//DTD SVG 1.1//EN" "http://www.w3.org/Graphics/SVG/1.1/DTD/svg11.dtd">
<svg t="1700103980989" class="icon" viewBox="0 0 1024 1024" version="1.1" xmlns="http://www.w3.org/2000/svg" p-id="12526" xmlns:xlink="http://www.w3.org/1999/xlink" width="64" height="64">
	<path d="M298.666667 213.333333c-46.933333 0-85.333333 38.4-85.333333 85.333333s38.4 85.333333 85.333333 85.333333 85.333333-38.4 85.333333-85.333333S345.6 213.333333 298.666667 213.333333zM298.666667 341.333333c-23.466667 0-42.666667-19.2-42.666667-42.666667s19.2-42.666667 42.666667-42.666667 42.666667 19.2 42.666667 42.666667S322.133333 341.333333 298.666667 341.333333zM896 42.666667 128 42.666667C81.066667 42.666667 42.666667 81.066667 42.666667 128l0 768c0 46.933333 38.4 85.333333 85.333333 85.333333l768 0c46.933333 0 85.333333-38.4 85.333333-85.333333L981.333333 128C981.333333 81.066667 942.933333 42.666667 896 42.666667zM938.666667 896c0 23.466667-19.2 42.666667-42.666667 42.666667L128 938.666667c-23.466667 0-42.666667-19.2-42.666667-42.666667L85.333333 128c0-23.466667 19.2-42.666667 42.666667-42.666667l768 0c23.466667 0 42.666667 19.2 42.666667 42.666667L938.666667 896zM672 648.533333c-14.933333 8.533333-29.866667 12.8-44.8 12.8-19.2 0-38.4-4.266667-53.333333-10.666667-14.933333-8.533333-29.866667-19.2-40.533333-32-10.666667-12.8-19.2-29.866667-25.6-46.933333-6.4-19.2-8.533333-38.4-8.533333-59.733333 0-21.333333 2.133333-38.4 8.533333-57.6 6.4-17.066667 14.933333-32 25.6-46.933333 10.666667-12.8 25.6-23.466667 40.533333-32 14.933333-6.4 34.133333-10.666667 53.333333-10.666667 12.8 0 25.6 2.133333 38.4 8.533333 12.8 6.4 25.6 17.066667 40.533333 32l53.333333-40.533333c-19.2-23.466667-38.4-40.533333-61.866667-49.066667S652.8 298.666667 627.2 298.666667c-29.866667 0-55.466667 4.266667-81.066667 14.933333-23.466667 10.666667-44.8 25.6-64 42.666667-17.066667 19.2-32 40.533333-40.533333 68.266667-10.666667 25.6-14.933333 55.466667-14.933333 89.6 0 32 4.266667 59.733333 14.933333 87.466667 10.666667 25.6 23.466667 49.066667 40.533333 66.133333 17.066667 19.2 38.4 32 64 42.666667 23.466667 10.666667 51.2 14.933333 81.066667 14.933333 27.733333 0 53.333333-6.4 78.933333-17.066667s44.8-29.866667 61.866667-55.466667l-55.466667-42.666667C699.733333 627.2 686.933333 640 672 648.533333z" p-id="12527">
	</path>
</svg>
