<?xml version="1.0" standalone="no"?><!DOCTYPE svg PUBLIC "-//W3C//DTD SVG 1.1//EN" "http://www.w3.org/Graphics/SVG/1.1/DTD/svg11.dtd"><svg t="1698393451817" class="icon" viewBox="0 0 1042 1024" version="1.1" xmlns="http://www.w3.org/2000/svg" p-id="2004" xmlns:xlink="http://www.w3.org/1999/xlink" width="203.515625" height="200"><path d="M949.028571 815.542857l-166.4-283.428571c-9.142857-14.628571-25.6-25.6-43.885714-25.6s-34.742857 9.142857-43.885714 25.6l-40.228572 69.485714c-31.085714-84.114286-76.8-210.285714-98.742857-234.057143-10.971429-12.8-29.257143-25.6-54.857143-40.228571l14.628572-18.285715c7.314286 1.828571 14.628571 1.828571 21.942857 1.828572 60.342857 0 109.714286-49.371429 109.714286-109.714286s-49.371429-109.714286-109.714286-109.714286-109.714286 49.371429-109.714286 109.714286c0 32.914286 14.628571 62.171429 38.4 82.285714l-14.628571 18.285715c-31.085714-12.8-65.828571-23.771429-100.571429-31.085715h-7.314285c-78.628571 0-104.228571 27.428571-137.142858 58.514286l-7.314285 7.314286c-12.8 10.971429-27.428571 25.6-36.571429 47.542857l-20.114286 51.2c-7.314286 18.285714 1.828571 38.4 20.114286 45.714286l80.457143 34.742857-20.114286 47.542857c-7.314286 18.285714 0 38.4 18.285715 47.542857l10.971428 5.485714c-7.314286-1.828571-12.8-1.828571-14.628571-1.828571-14.628571-1.828571-31.085714 7.314286-36.571429 20.114286L78.628571 896l65.828572 31.085714 109.714286-235.885714c29.257143 5.485714 76.8 16.457143 117.028571 40.228571 27.428571 14.628571 29.257143 109.714286 12.8 186.514286l71.314286 14.628572c5.485714-29.257143 27.428571-151.771429-10.971429-224.914286 5.485714 0 10.971429-1.828571 14.628572-3.657143 9.142857-5.485714 18.285714-14.628571 20.114285-23.771429l12.8-54.857142 113.371429 49.371428-84.114286 142.628572c-10.971429 20.114286-10.971429 42.057143 0 62.171428s32.914286 31.085714 54.857143 31.085714h312.685714c21.942857 0 43.885714-12.8 54.857143-31.085714 16.457143-20.114286 16.457143-43.885714 5.485714-64zM535.771429 164.571429c20.114286 0 36.571429 16.457143 36.571428 36.571428s-16.457143 36.571429-36.571428 36.571429-36.571429-16.457143-36.571429-36.571429 16.457143-36.571429 36.571429-36.571428zM384 367.542857l89.6 40.228572-51.2 212.114285-118.857143-58.514285L384 367.542857z m-160.914286 60.342857l7.314286-18.285714c1.828571-5.485714 9.142857-12.8 18.285714-21.942857 3.657143-1.828571 5.485714-5.485714 9.142857-9.142857 21.942857-21.942857 32.914286-31.085714 56.685715-34.742857l-43.885715 104.228571-47.542857-20.114286zM530.285714 484.571429c10.971429 27.428571 23.771429 58.514286 34.742857 91.428571l-51.2-21.942857 16.457143-69.485714z m69.485715 351.085714l137.142857-234.057143 137.142857 234.057143h-274.285714z" p-id="2005"></path></svg>