<?xml version="1.0" standalone="no"?>
<!DOCTYPE svg PUBLIC "-//W3C//DTD SVG 1.1//EN" "http://www.w3.org/Graphics/SVG/1.1/DTD/svg11.dtd">
<svg t="1698649622365" class="icon" viewBox="0 0 1024 1024" version="1.1" xmlns="http://www.w3.org/2000/svg" p-id="9272" xmlns:xlink="http://www.w3.org/1999/xlink" width="64" height="64">
	<path d="M512 384l147.2 76.8L576 601.6s0 6.4-6.4 6.4l-12.8 19.2c-25.6 25.6-70.4 32-102.4 19.2-38.4-19.2-51.2-70.4-32-108.8v-6.4L512 384z" opacity=".1" p-id="9273">
	</path>
	<path d="M224 832v-140.8L320 704l128 64 192-32 64-128L768 512l32-32V832h-576z" opacity=".1" p-id="9274">
	</path>
	<path d="M492.8 742.4c-25.6 0-57.6-6.4-76.8-19.2-38.4-19.2-64-57.6-76.8-96-12.8-44.8-6.4-89.6 19.2-128l121.6-204.8 44.8-12.8 83.2 51.2 70.4-128-89.6-51.2 32-57.6 224 128-32 57.6-83.2-51.2-70.4 128 83.2 51.2 12.8 44.8-121.6 204.8c-19.2 38.4-57.6 64-96 76.8-12.8 0-32 6.4-44.8 6.4zM512 352L409.6 531.2c-12.8 25.6-12.8 51.2-6.4 76.8 6.4 25.6 25.6 44.8 44.8 57.6 19.2 12.8 51.2 19.2 70.4 12.8 25.6-6.4 44.8-25.6 57.6-44.8L678.4 448 512 352z" p-id="9275">
	</path>
	<path d="M896 928H128l-32-32v-192h64v160h704v-384h64V896z" p-id="9276">
	</path>
</svg>
