<?xml version="1.0" standalone="no"?>
<!DOCTYPE svg PUBLIC "-//W3C//DTD SVG 1.1//EN" "http://www.w3.org/Graphics/SVG/1.1/DTD/svg11.dtd">
<svg t="1698630307138" class="icon" viewBox="0 0 1024 1024" version="1.1" xmlns="http://www.w3.org/2000/svg" p-id="6789" xmlns:xlink="http://www.w3.org/1999/xlink" width="64" height="64">
	<path d="M875.175705 875.175705l-40.299969 40.299969-23.164549-23.164549 40.299969-40.299969-31.732259-31.732259-15.548807 15.548807-23.164549-23.164549 15.548807-15.548807-31.732259-31.732259-15.548807 15.548807L729.841958 761.574218l15.548807-15.548807-31.732259-31.732259-40.299969 40.299969-23.164549-23.16455 40.299969-40.299969-31.732259-31.732259-15.548807 15.548807-23.164549-23.164549 15.548807-15.548807-31.732259-31.732259-15.548807 15.548807L571.180663 602.912922l15.548807-15.548807-31.732259-31.732259-40.299969 40.299969-23.164549-23.164549 40.299969-40.299969-31.732259-31.732259-15.548807 15.548807-23.164549-23.164549 15.548807-15.548807-31.732259-31.732259-15.548807 15.548807-23.164549-23.164549 15.548807-15.548807-31.73226-31.732259-40.299969 40.299969-17.135419-18.722033 40.299969-40.299969-31.732259-31.732259-15.548807 15.548807-23.16455-23.164549 15.548807-15.548807-31.732259-31.732259-15.548807 15.548807-23.164549-23.16455 18.722033-11.423613-31.732259-31.732259-38.713356 41.886582L172.940812 253.858073l40.299969-40.617292-31.732259-31.732259-15.548807 15.548807-23.164549-23.164549L158.661295 158.661295 0 0v1024h1024zM79.330648 944.669352V190.393554l753.006507 754.275798z" p-id="6790">
	</path>
</svg>
