<?xml version="1.0" standalone="no"?>
<!DOCTYPE svg PUBLIC "-//W3C//DTD SVG 1.1//EN" "http://www.w3.org/Graphics/SVG/1.1/DTD/svg11.dtd">
<svg t="1698393517484" class="icon" viewBox="0 0 1024 1024" version="1.1" xmlns="http://www.w3.org/2000/svg" p-id="5024" xmlns:xlink="http://www.w3.org/1999/xlink" width="200" height="200">
	<path d="M542.117647 692.705882h-60.235294v-60.235294H271.058824a120.470588 120.470588 0 0 1-120.470589-120.470588v-240.941176H60.235294v-180.705883h421.647059v180.705883H391.529412v120.470588h90.352941v-60.235294h60.235294v60.235294H752.941176a120.470588 120.470588 0 0 1 120.470589 120.470588v240.941176h90.352941v180.705883h-421.647059v-180.705883H632.470588v-120.470588H542.117647v60.235294z m0-120.470588H692.705882v240.941177H602.352941v60.235294h301.176471v-60.235294H813.176471v-301.176471a60.235294 60.235294 0 0 0-53.187765-59.813647L752.941176 451.764706H542.117647v120.470588z m-120.470588-361.411765v-60.235294h-301.176471v60.235294H210.823529v301.176471a60.235294 60.235294 0 0 0 53.187765 59.813647L271.058824 572.235294h210.823529v-120.470588H331.294118v-240.941177h90.352941z" p-id="5025">
	</path>
</svg>
