<?xml version="1.0" standalone="no"?><!DOCTYPE svg PUBLIC "-//W3C//DTD SVG 1.1//EN" "http://www.w3.org/Graphics/SVG/1.1/DTD/svg11.dtd"><svg t="1700102090292" class="icon" viewBox="0 0 1068 1024" version="1.1" xmlns="http://www.w3.org/2000/svg" p-id="6217" xmlns:xlink="http://www.w3.org/1999/xlink" width="66.75" height="64"><path d="M102.40287 377.630744a95.271216 95.271216 0 1 0 190.498044 0c8.685231-61.995091-43.292992-97.387038-95.271216-97.387038a96.987547 96.987547 0 0 0-95.226828 97.387038z m905.513029-226.614992a57.793037 57.793037 0 0 0-60.382331 52.925165c8.685231 26.54396 34.622557 53.087921 60.663454 53.08792a58.384876 58.384876 0 0 0 60.663455-53.08792 58.651203 58.651203 0 0 0-60.885394-53.147105z m-264.344702 43.796055a97.41663 97.41663 0 1 0-95.226828-97.387039c-8.685231 52.865981 34.622557 97.165099 95.226828 97.165099z m-396.798177 26.54396c43.292992 0 86.60078-35.391947 86.600781-79.691065s-34.666945-79.898208-86.600781-79.898208c-43.292992 0-86.60078 35.510315-86.60078 79.691065s34.622557 79.691065 86.60078 79.691064z m429.186543 228.56806c0 44.521057 34.666945 79.691065 86.60078 79.691065 43.292992 0 86.60078-35.510315 86.600781-79.691065s-34.622557-79.691065-86.600781-79.691065c-43.085849-0.118368-86.60078 35.170008-86.60078 79.691065z m-214.985364-7.294411a69.11195 69.11195 0 0 0 69.289501-70.843078 75.267071 75.267071 0 0 0-69.289501-70.783894 69.097154 69.097154 0 0 0-69.289502 70.783894 75.296663 75.296663 0 0 0 69.289502 70.739507z m427.351843 151.495881a34.371026 34.371026 0 0 0-23.259256 4.734709c-186.429153 133.163681-354.28937 38.070017-358.905712 33.394492-349.554662-218.980275-582.517123 14.026574-582.517123 14.026574a24.872016 24.872016 0 0 0-9.291865 19.02761 36.013378 36.013378 0 0 0 9.291865 19.027611c9.35105 14.248514 27.831209 9.513805 41.961356 0 4.675525-9.513805 195.735815-194.788873 503.373508-4.734709a359.660305 359.660305 0 0 0 186.429153 47.524638 430.695731 430.695731 0 0 0 247.092608-80.859946 35.835826 35.835826 0 0 0 4.616341-42.745542 23.880687 23.880687 0 0 0-18.761283-9.513805zM69.230318 150.349933a70.014504 70.014504 0 1 0-49.31495-21.099045 70.073688 70.073688 0 0 0 49.31495 21.099045zM134.421338 791.177952h-78.418612v228.168569h53.872106v-75.577787h26.026102c47.243515 0 88.479868-23.984258 88.479868-78.300244 0.07398-56.476197-40.555739-74.290538-89.959464-74.290538z m-1.228065 109.490138H109.800853v-66.182349h21.986803c25.878142 0 40.289411 7.960229 40.289411 31.071525s-12.635754 35.155212-38.839407 35.155212z m249.267614-11.126566c-4.231646 13.183204-7.841861 27.831209-12.354631 41.739416h-1.479596c-4.172462-14.130146-7.797473-28.556212-12.295447-41.739416l-35.480722-98.526327h-57.89661V1019.183766h47.864946v-77.826774a768.768724 768.768724 0 0 0-6.89492-79.247186h1.228065l18.036281 54.656293 30.390911 83.478832h29.414378l30.109787-83.478832 18.642916-54.656293h1.228065a768.739132 768.739132 0 0 0-6.89492 79.247186v78.241061h49.033827V791.414688h-58.325693z m208.800651 87.04466c34.341434-35.288375 67.395618-78.581368 67.395618-117.864654a68.712459 68.712459 0 0 0-73.40278-71.849203 92.933453 92.933453 0 0 0-74.349721 35.288375l29.22203 29.488357a53.176696 53.176696 0 0 1 37.892465-22.193946c17.755157 0 29.22203 11.126565 29.22203 32.284794 0 33.394492-37.626138 74.571661-93.614068 126.505497v31.278669h155.357628v-46.030246h-41.280741a306.675957 306.675957 0 0 0-36.398073 3.166337z m145.976986-20.595983a34.030718 34.030718 0 1 0 31.885303 33.779187 32.225611 32.225611 0 0 0-32.166426-33.779187z m149.587201-85.313531a55.203744 55.203744 0 0 0-23.155684 4.616341l3.284704-38.957775h79.765045v-45.379223h-125.765699l-5.563282 112.967189 23.436807 15.639335a49.418521 49.418521 0 0 1 31.604181-11.126566 31.515404 31.515404 0 0 1 32.832245 35.288376 32.403162 32.403162 0 0 1-35.229192 35.613886 67.64715 67.64715 0 0 1-46.030245-21.764864l-24.724057 34.681741a105.731962 105.731962 0 0 0 78.24106 31.663364 78.063509 78.063509 0 0 0 80.978314-81.081885c0-49.418521-31.944487-72.130327-69.836952-72.130327z" fill="#FFA412" p-id="6218"></path></svg>