<?xml version="1.0" standalone="no"?>
<!DOCTYPE svg PUBLIC "-//W3C//DTD SVG 1.1//EN" "http://www.w3.org/Graphics/SVG/1.1/DTD/svg11.dtd">
<svg t="1699431229142" class="icon" viewBox="0 0 1024 1024" version="1.1" xmlns="http://www.w3.org/2000/svg" p-id="12653" xmlns:xlink="http://www.w3.org/1999/xlink" width="64" height="64">
	<path d="M403.152593 937.054815c-4.835556 0-9.765926-1.232593-14.127408-3.792593L94.53037 764.965926c-23.608889-13.463704-38.21037-38.684444-38.21037-65.896296v-565.096297c0-15.265185 12.041481-27.780741 27.306667-28.444444l521.86074-21.522963c14.222222-0.568889 28.34963 2.844444 40.675556 9.860741 0.094815 0 0.094815 0.094815 0.18963 0.094814L941.700741 265.481481c6.257778 0.663704 12.041481 3.413333 16.687407 7.774815 5.594074 5.404444 8.722963 12.8 8.722963 20.48v504.225185c0 38.020741-28.444444 70.352593-66.085926 75.188149l-219.875555 28.444444c-15.54963 1.991111-29.866667-9.007407-31.857778-24.557037-1.991111-15.54963 9.007407-29.866667 24.557037-31.857778l219.875555-28.444444c9.386667-1.232593 16.497778-9.291852 16.497778-18.773334V323.508148l-460.420741 18.962963c-10.24 0.379259-18.204444 8.722963-18.204444 18.962963v547.176296c0 10.145185-5.404444 19.531852-14.127407 24.557037-4.456296 2.56-9.386667 3.887407-14.317037 3.887408zM113.208889 161.28v537.884444c0 6.826667 3.697778 13.084444 9.576296 16.497778l252.017778 144.023704V361.434074c0-40.77037 31.952593-74.145185 72.722963-75.757037l387.982222-16.023704-217.6-126.388148c-3.034074-1.706667-6.542222-2.56-10.145185-2.465185l-494.554074 20.48z" p-id="12654">
	</path>
	<path d="M281.6 276.100741c-4.551111 0-9.102222-1.042963-13.368889-3.318519l-185.837037-98.797037c-13.842963-7.395556-19.152593-24.557037-11.757037-38.494815 7.395556-13.842963 24.557037-19.152593 38.494815-11.757037l185.837037 98.797037c13.842963 7.395556 19.152593 24.557037 11.757037 38.494815-5.12 9.576296-14.980741 15.075556-25.125926 15.075556zM676.124444 580.171852c-15.739259 0-28.444444-12.705185-28.444444-28.444445V305.493333c0-15.739259 12.705185-28.444444 28.444444-28.444444s28.444444 12.705185 28.444445 28.444444v246.234074c0 15.739259-12.705185 28.444444-28.444445 28.444445z" p-id="12655">
	</path>
</svg>
