<?xml version="1.0" standalone="no"?>
<!DOCTYPE svg PUBLIC "-//W3C//DTD SVG 1.1//EN" "http://www.w3.org/Graphics/SVG/1.1/DTD/svg11.dtd">
<svg t="1698649446059" class="icon" viewBox="0 0 1024 1024" version="1.1" xmlns="http://www.w3.org/2000/svg" p-id="8076" xmlns:xlink="http://www.w3.org/1999/xlink" width="64" height="64">
	<path d="M530.24 475.36h-36.48v26.08l-22.56 12.96 18.24 31.68 22.56-12.96 22.56 12.96 18.24-31.68-22.56-12.96v-26.08zM493.76 350.08h36.64v62.72h-36.64zM493.76 224.64h36.64v62.72h-36.64zM493.76 99.36h36.64v62.72h-36.64zM253.936 639.872l54.304-31.376 18.256 31.584-54.304 31.376zM145.472 702.688l54.304-31.36 18.24 31.568-54.288 31.376zM362.56 577.28l54.288-31.36 18.256 31.584-54.304 31.376zM805.92 702.848l18.24-31.6 54.32 31.344-18.24 31.6zM588.752 577.44l18.24-31.584 54.304 31.36-18.24 31.6zM697.392 640.016l18.24-31.584 54.32 31.36-18.24 31.6zM68.64 768z" p-id="8077">
	</path>
	<path d="M530.24 10.56L512 0l-18.24 10.56L68.64 256v512l18.24 10.56L512 1024l425.12-245.44 18.24-10.56V256z m-425.12 736V277.12L512 42.24l406.88 234.88v469.76L512 981.76z" p-id="8078">
	</path>
</svg>
