<?xml version="1.0" standalone="no"?>
<!DOCTYPE svg PUBLIC "-//W3C//DTD SVG 1.1//EN" "http://www.w3.org/Graphics/SVG/1.1/DTD/svg11.dtd">
<svg t="1698734615093" class="icon" viewBox="0 0 1024 1024" version="1.1" xmlns="http://www.w3.org/2000/svg" p-id="10650" xmlns:xlink="http://www.w3.org/1999/xlink" width="64" height="64">
	<path d="M13.544727 861.789091L126.277818 299.240727 324.421818 183.482182l182.411637 103.842909 184.41309-103.563636 212.340364 115.106909 105.844364 561.384727-260.049455-145.966546-242.641454 127.581091-241.058909-127.441454z m251.019637-200.610909l242.036363 128.046545 243.339637-127.906909 195.118545 109.521455-83.269818-441.576728-170.309818-92.299636-184.971637 103.889455L324.747636 237.381818 167.842909 329.029818l-88.436364 440.413091z" p-id="10651">
	</path>
	<path d="M307.479273 706.420364l-46.545455-4.189091 44.869818-495.895273 46.545455 4.189091z" p-id="10652">
	</path>
	<path d="M723.688727 703.953455l-46.08-493.381819 46.545455-4.328727 46.08 493.381818z" p-id="10653">
	</path>
	<path d="M104.773818 582.516364l-24.110545-39.796364 207.639272-125.672727h6.516364c4.654545 0 4.654545 0 18.013091 5.678545l187.392 79.918546 216.901818-127.441455 198.190546 101.701818-21.271273 41.425455L718.661818 428.218182l-215.086545 126.370909-10.798546-4.654546-196.142545-83.781818z" p-id="10654">
	</path>
	<path d="M535.272727 804.352h-46.545454V314.507636h46.545454z" p-id="10655">
	</path>
</svg>
